<svg width="668" height="1164" viewBox="0 0 668 1164" fill="none" xmlns="http://www.w3.org/2000/svg">
<path d="M608.008 1061.69C598.34 1073.51 585.091 1085.5 568.262 1097.68C551.432 1109.85 531.559 1120.77 508.643 1130.44C485.368 1140.47 459.408 1148.52 430.762 1154.61C402.116 1160.7 371.322 1163.74 338.379 1163.74C309.733 1163.74 282.699 1160.34 257.275 1153.54C232.21 1147.09 209.115 1137.6 187.988 1125.07C167.22 1112.18 148.242 1096.42 131.055 1077.8C114.225 1059.18 99.9023 1037.88 88.0859 1013.89C74.4792 987.391 64.0951 957.492 56.9336 924.191C50.1302 890.891 46.7285 854.725 46.7285 815.695V709.348C46.7285 672.108 50.1302 637.554 56.9336 605.686C63.737 573.459 73.4049 544.276 85.9375 518.137C97.7539 494.862 111.361 473.915 126.758 455.295C142.513 436.675 159.701 420.562 178.32 406.955C200.163 391.558 223.975 379.921 249.756 372.043C275.537 364.165 302.751 360.227 331.396 360.227C375.439 360.227 413.753 365.777 446.338 376.877C479.281 387.977 507.031 403.911 529.59 424.68C552.148 445.806 569.694 471.408 582.227 501.486C595.117 531.564 603.532 565.402 607.471 603H460.303C457.796 584.022 453.857 567.193 448.486 552.512C443.473 537.831 436.491 525.477 427.539 515.451C417.513 504.351 404.801 496.115 389.404 490.744C374.365 485.015 356.283 482.15 335.156 482.15C323.698 482.15 312.598 483.941 301.855 487.521C291.113 491.102 281.087 496.294 271.777 503.098C259.603 512.408 248.503 524.582 238.477 539.621C228.809 554.66 220.752 572.385 214.307 592.795C209.294 608.55 205.355 626.096 202.49 645.432C199.984 664.768 198.73 685.715 198.73 708.273V815.695C198.73 843.983 200.521 869.764 204.102 893.039C208.04 916.314 213.411 936.903 220.215 954.807C224.512 965.191 229.346 974.859 234.717 983.811C240.446 992.404 246.712 1000.1 253.516 1006.91C264.974 1018.36 278.223 1027.14 293.262 1033.22C308.659 1038.95 326.025 1042 345.361 1042.36C357.178 1042.36 368.815 1041.46 380.273 1039.67C391.732 1037.88 402.474 1035.37 412.5 1032.15C422.526 1028.93 431.299 1025.35 438.818 1021.41C446.696 1017.11 452.604 1012.64 456.543 1007.98L457.08 866.184H327.637V753.391H607.471L608.008 1061.69Z" fill="white"/>
<path d="M608.008 1061.69L611.104 1064.22L612.01 1063.12L612.008 1061.68L608.008 1061.69ZM508.643 1130.44L507.088 1126.76L507.074 1126.76L507.06 1126.77L508.643 1130.44ZM257.275 1153.54L258.309 1149.67L258.291 1149.67L258.272 1149.66L257.275 1153.54ZM187.988 1125.07L185.879 1128.47L185.913 1128.49L185.947 1128.51L187.988 1125.07ZM131.055 1077.8L128.087 1080.49L128.101 1080.5L128.115 1080.52L131.055 1077.8ZM88.0859 1013.89L91.6743 1012.12L91.6595 1012.09L91.6442 1012.06L88.0859 1013.89ZM56.9336 924.191L53.0145 924.992L53.0187 925.012L53.023 925.032L56.9336 924.191ZM56.9336 605.686L60.8455 606.521L60.8473 606.512L56.9336 605.686ZM85.9375 518.137L82.3708 516.326L82.3503 516.366L82.3306 516.407L85.9375 518.137ZM126.758 455.295L123.704 452.711L123.69 452.728L123.675 452.746L126.758 455.295ZM178.32 406.955L176.016 403.686L175.988 403.705L175.96 403.726L178.32 406.955ZM446.338 376.877L445.048 380.663L445.061 380.668L446.338 376.877ZM529.59 424.68L532.324 421.76L532.312 421.748L532.299 421.737L529.59 424.68ZM582.227 501.486L578.534 503.025L578.542 503.043L578.55 503.062L582.227 501.486ZM607.471 603V607H611.912L611.449 602.583L607.471 603ZM460.303 603L456.337 603.524L456.796 607H460.303V603ZM448.486 552.512L444.701 553.804L444.715 553.845L444.73 553.886L448.486 552.512ZM427.539 515.451L430.523 512.787L430.515 512.779L430.507 512.77L427.539 515.451ZM389.404 490.744L387.98 494.482L388.033 494.502L388.087 494.521L389.404 490.744ZM271.777 503.098L269.417 499.868L269.382 499.894L269.348 499.92L271.777 503.098ZM238.477 539.621L235.148 537.402L235.13 537.43L235.112 537.458L238.477 539.621ZM214.307 592.795L218.118 594.008L218.121 593.999L214.307 592.795ZM202.49 645.432L198.533 644.845L198.528 644.881L198.523 644.917L202.49 645.432ZM204.102 893.039L200.148 893.647L200.153 893.677L200.158 893.706L204.102 893.039ZM220.215 954.807L216.476 956.228L216.496 956.282L216.519 956.336L220.215 954.807ZM234.717 983.811L231.287 985.869L231.336 985.95L231.389 986.029L234.717 983.811ZM253.516 1006.91L256.344 1004.08L253.516 1006.91ZM293.262 1033.22L291.761 1036.93L291.814 1036.95L291.867 1036.97L293.262 1033.22ZM345.361 1042.36L345.287 1046.35L345.324 1046.36H345.361V1042.36ZM438.818 1021.41L440.674 1024.95L440.704 1024.94L440.734 1024.92L438.818 1021.41ZM456.543 1007.98L459.597 1010.56L460.537 1009.45L460.543 1008L456.543 1007.98ZM457.08 866.184L461.08 866.199L461.095 862.184H457.08V866.184ZM327.637 866.184H323.637V870.184H327.637V866.184ZM327.637 753.391V749.391H323.637V753.391H327.637ZM607.471 753.391L611.471 753.384L611.464 749.391H607.471V753.391ZM604.912 1059.16C595.525 1070.63 582.56 1082.4 565.917 1094.44L570.606 1100.92C587.622 1088.61 601.154 1076.38 611.104 1064.22L604.912 1059.16ZM565.917 1094.44C549.376 1106.4 529.778 1117.18 507.088 1126.76L510.197 1134.13C533.34 1124.36 553.489 1113.3 570.606 1100.92L565.917 1094.44ZM507.06 1126.77C484.061 1136.68 458.357 1144.66 429.93 1150.7L431.593 1158.52C460.458 1152.39 486.675 1144.26 510.225 1134.12L507.06 1126.77ZM429.93 1150.7C401.589 1156.72 371.076 1159.74 338.379 1159.74V1167.74C371.567 1167.74 402.643 1164.68 431.593 1158.52L429.93 1150.7ZM338.379 1159.74C310.052 1159.74 283.367 1156.38 258.309 1149.67L256.241 1157.4C282.03 1164.3 309.415 1167.74 338.379 1167.74V1159.74ZM258.272 1149.66C233.554 1143.31 210.812 1133.96 190.029 1121.63L185.947 1128.51C207.417 1141.25 230.867 1150.88 256.279 1157.41L258.272 1149.66ZM190.098 1121.67C169.647 1108.98 150.946 1093.46 133.994 1075.09L128.115 1080.52C145.538 1099.39 164.793 1115.38 185.879 1128.47L190.098 1121.67ZM134.022 1075.12C117.457 1056.79 103.338 1035.8 91.6743 1012.12L84.4976 1015.66C96.4669 1039.96 110.994 1061.57 128.087 1080.49L134.022 1075.12ZM91.6442 1012.06C78.2186 985.917 67.9423 956.356 60.8442 923.35L53.023 925.032C60.2478 958.628 70.7397 988.866 84.5277 1015.72L91.6442 1012.06ZM60.8526 923.391C54.1103 890.389 50.7285 854.495 50.7285 815.695H42.7285C42.7285 854.955 46.1501 891.392 53.0145 924.992L60.8526 923.391ZM50.7285 815.695V709.348H42.7285V815.695H50.7285ZM50.7285 709.348C50.7285 672.35 54.1083 638.079 60.8454 606.521L53.0217 604.85C46.1521 637.029 42.7285 671.866 42.7285 709.348H50.7285ZM60.8473 606.512C67.5936 574.556 77.167 545.682 89.5444 519.866L82.3306 516.407C69.6429 542.87 59.8804 572.362 53.0199 604.859L60.8473 606.512ZM89.5042 519.947C101.198 496.915 114.646 476.219 129.84 457.844L123.675 452.746C108.076 471.611 94.3102 492.809 82.3708 516.326L89.5042 519.947ZM129.811 457.879C145.374 439.487 162.331 423.594 180.68 410.185L175.96 403.726C157.07 417.53 139.652 433.863 123.704 452.711L129.811 457.879ZM180.625 410.224C202.118 395.074 225.546 383.623 250.925 375.868L248.587 368.218C222.404 376.218 198.208 388.042 176.016 403.686L180.625 410.224ZM250.925 375.868C276.304 368.114 303.122 364.227 331.396 364.227V356.227C302.379 356.227 274.77 360.217 248.587 368.218L250.925 375.868ZM331.396 364.227C375.117 364.227 412.976 369.738 445.048 380.663L447.628 373.091C414.53 361.816 375.762 356.227 331.396 356.227V364.227ZM445.061 380.668C477.543 391.613 504.786 407.282 526.881 427.622L532.299 421.737C509.276 400.541 481.018 384.342 447.615 373.086L445.061 380.668ZM526.856 427.599C548.978 448.317 566.208 473.441 578.534 503.025L585.919 499.948C573.18 469.376 555.319 443.295 532.324 421.76L526.856 427.599ZM578.55 503.062C591.26 532.719 599.589 566.158 603.492 603.417L611.449 602.583C607.475 564.647 598.974 530.41 585.903 499.911L578.55 503.062ZM607.471 599H460.303V607H607.471V599ZM464.268 602.476C461.732 583.27 457.734 566.147 452.243 551.137L444.73 553.886C449.981 568.239 453.861 584.774 456.337 603.524L464.268 602.476ZM452.272 551.219C447.112 536.109 439.882 523.269 430.523 512.787L424.555 518.115C433.1 527.686 439.834 539.552 444.701 553.804L452.272 551.219ZM430.507 512.77C419.992 501.128 406.694 492.539 390.722 486.967L388.087 494.521C402.909 499.691 415.034 507.574 424.571 518.132L430.507 512.77ZM390.828 487.006C375.217 481.059 356.625 478.15 335.156 478.15V486.15C355.94 486.15 373.514 488.971 387.98 494.482L390.828 487.006ZM335.156 478.15C323.273 478.15 311.746 480.008 300.591 483.727L303.12 491.316C313.45 487.873 324.123 486.15 335.156 486.15V478.15ZM300.591 483.727C289.449 487.441 279.055 492.825 269.417 499.868L274.137 506.327C283.12 499.763 292.777 494.764 303.12 491.316L300.591 483.727ZM269.348 499.92C256.766 509.541 245.376 522.061 235.148 537.402L241.805 541.84C251.629 527.104 262.439 515.274 274.207 506.275L269.348 499.92ZM235.112 537.458C225.219 552.847 217.024 570.906 210.492 591.59L218.121 593.999C224.48 573.863 232.398 556.473 241.841 541.784L235.112 537.458ZM210.495 591.582C205.406 607.575 201.424 625.334 198.533 644.845L206.447 646.018C209.286 626.857 213.181 609.525 218.118 594.008L210.495 591.582ZM198.523 644.917C195.992 664.448 194.73 685.569 194.73 708.273H202.73C202.73 685.861 203.976 665.087 206.457 645.946L198.523 644.917ZM194.73 708.273V815.695H202.73V708.273H194.73ZM194.73 815.695C194.73 844.148 196.531 870.136 200.148 893.647L208.055 892.431C204.511 869.393 202.73 843.819 202.73 815.695H194.73ZM200.158 893.706C204.13 917.182 209.561 938.032 216.476 956.228L223.954 953.386C217.262 935.774 211.95 915.446 208.045 892.372L200.158 893.706ZM216.519 956.336C220.885 966.889 225.807 976.735 231.287 985.869L238.147 981.753C232.885 972.982 228.138 963.493 223.911 953.277L216.519 956.336ZM231.389 986.029C237.253 994.826 243.684 1002.73 250.687 1009.73L256.344 1004.08C249.74 997.474 243.639 989.982 238.045 981.592L231.389 986.029ZM250.687 1009.73C262.525 1021.57 276.225 1030.64 291.761 1036.93L294.762 1029.52C280.22 1023.63 267.423 1015.16 256.344 1004.08L250.687 1009.73ZM291.867 1036.97C307.754 1042.89 325.578 1045.99 345.287 1046.35L345.435 1038.36C326.473 1038 309.563 1035.02 294.657 1029.48L291.867 1036.97ZM345.361 1046.36C357.381 1046.36 369.225 1045.44 380.891 1043.62L379.656 1035.72C368.406 1037.48 356.975 1038.36 345.361 1038.36V1046.36ZM380.891 1043.62C392.535 1041.8 403.481 1039.25 413.724 1035.96L411.276 1028.34C401.467 1031.5 390.929 1033.96 379.656 1035.72L380.891 1043.62ZM413.724 1035.96C423.918 1032.68 432.911 1029.02 440.674 1024.95L436.962 1017.86C429.687 1021.68 421.134 1025.17 411.276 1028.34L413.724 1035.96ZM440.734 1024.92C448.859 1020.49 455.226 1015.73 459.597 1010.56L453.489 1005.4C449.982 1009.54 444.533 1013.73 436.903 1017.9L440.734 1024.92ZM460.543 1008L461.08 866.199L453.08 866.168L452.543 1007.97L460.543 1008ZM457.08 862.184H327.637V870.184H457.08V862.184ZM331.637 866.184V753.391H323.637V866.184H331.637ZM327.637 757.391H607.471V749.391H327.637V757.391ZM603.471 753.398L604.008 1061.7L612.008 1061.68L611.471 753.384L603.471 753.398Z" fill="black"/>
<path d="M667.1 1061.69C657.432 1073.51 644.183 1085.5 627.354 1097.68C610.524 1109.85 590.651 1120.77 567.735 1130.44C544.46 1140.47 518.5 1148.52 489.854 1154.61C461.208 1160.7 430.414 1163.74 397.471 1163.74C368.825 1163.74 341.791 1160.34 316.367 1153.54C291.302 1147.09 268.207 1137.6 247.08 1125.07C226.312 1112.18 207.334 1096.42 190.147 1077.8C173.317 1059.18 158.994 1037.88 147.178 1013.89C133.571 987.391 123.187 957.492 116.026 924.191C109.222 890.891 105.821 854.725 105.821 815.695V709.348C105.821 672.108 109.222 637.554 116.026 605.686C122.829 573.459 132.497 544.276 145.03 518.137C156.846 494.862 170.453 473.915 185.85 455.295C201.605 436.675 218.793 420.562 237.412 406.955C259.255 391.558 283.067 379.921 308.848 372.043C334.629 364.165 361.843 360.227 390.489 360.227C434.531 360.227 472.845 365.777 505.43 376.877C538.373 387.977 566.123 403.911 588.682 424.68C611.24 445.806 628.786 471.408 641.319 501.486C654.209 531.564 662.624 565.402 666.563 603H519.395C516.888 584.022 512.949 567.193 507.578 552.512C502.565 537.831 495.583 525.477 486.631 515.451C476.605 504.351 463.893 496.115 448.496 490.744C433.457 485.015 415.375 482.15 394.248 482.15C382.79 482.15 371.69 483.941 360.948 487.521C350.205 491.102 340.179 496.294 330.869 503.098C318.695 512.408 307.595 524.582 297.569 539.621C287.901 554.66 279.844 572.385 273.399 592.795C268.386 608.55 264.447 626.096 261.582 645.432C259.076 664.768 257.823 685.715 257.823 708.273V815.695C257.823 843.983 259.613 869.764 263.194 893.039C267.132 916.314 272.503 936.903 279.307 954.807C283.604 965.191 288.438 974.859 293.809 983.811C299.538 992.404 305.804 1000.1 312.608 1006.91C324.066 1018.36 337.315 1027.14 352.354 1033.22C367.751 1038.95 385.117 1042 404.453 1042.36C416.27 1042.36 427.907 1041.46 439.365 1039.67C450.824 1037.88 461.566 1035.37 471.592 1032.15C481.618 1028.93 490.391 1025.35 497.91 1021.41C505.788 1017.11 511.696 1012.64 515.635 1007.98L516.172 866.184H386.729V753.391H666.563L667.1 1061.69Z" fill="white"/>
<path d="M667.1 1061.69L670.196 1064.22L671.102 1063.12L671.1 1061.68L667.1 1061.69ZM567.735 1130.44L566.18 1126.76L566.166 1126.76L566.152 1126.77L567.735 1130.44ZM316.367 1153.54L317.401 1149.67L317.383 1149.67L317.364 1149.66L316.367 1153.54ZM247.08 1125.07L244.971 1128.47L245.005 1128.49L245.04 1128.51L247.08 1125.07ZM190.147 1077.8L187.179 1080.49L187.193 1080.5L187.208 1080.52L190.147 1077.8ZM147.178 1013.89L150.766 1012.12L150.752 1012.09L150.736 1012.06L147.178 1013.89ZM116.026 924.191L112.107 924.992L112.111 925.012L112.115 925.032L116.026 924.191ZM116.026 605.686L119.937 606.521L119.939 606.512L116.026 605.686ZM145.03 518.137L141.463 516.326L141.442 516.366L141.423 516.407L145.03 518.137ZM185.85 455.295L182.796 452.711L182.782 452.728L182.767 452.746L185.85 455.295ZM237.412 406.955L235.108 403.686L235.08 403.705L235.052 403.726L237.412 406.955ZM505.43 376.877L504.14 380.663L504.153 380.668L505.43 376.877ZM588.682 424.68L591.416 421.76L591.404 421.748L591.391 421.737L588.682 424.68ZM641.319 501.486L637.626 503.025L637.634 503.043L637.642 503.062L641.319 501.486ZM666.563 603V607H671.004L670.541 602.583L666.563 603ZM519.395 603L515.429 603.524L515.888 607H519.395V603ZM507.578 552.512L503.793 553.804L503.807 553.845L503.822 553.886L507.578 552.512ZM486.631 515.451L489.615 512.787L489.607 512.779L489.6 512.77L486.631 515.451ZM448.496 490.744L447.072 494.482L447.125 494.502L447.179 494.521L448.496 490.744ZM330.869 503.098L328.509 499.868L328.474 499.894L328.44 499.92L330.869 503.098ZM297.569 539.621L294.24 537.402L294.222 537.43L294.204 537.458L297.569 539.621ZM273.399 592.795L277.21 594.008L277.213 593.999L273.399 592.795ZM261.582 645.432L257.625 644.845L257.62 644.881L257.615 644.917L261.582 645.432ZM263.194 893.039L259.24 893.647L259.245 893.677L259.25 893.706L263.194 893.039ZM279.307 954.807L275.568 956.228L275.588 956.282L275.611 956.336L279.307 954.807ZM293.809 983.811L290.379 985.869L290.428 985.95L290.481 986.029L293.809 983.811ZM312.608 1006.91L315.436 1004.08L312.608 1006.91ZM352.354 1033.22L350.853 1036.93L350.906 1036.95L350.959 1036.97L352.354 1033.22ZM404.453 1042.36L404.379 1046.35L404.416 1046.36H404.453V1042.36ZM497.91 1021.41L499.766 1024.95L499.796 1024.94L499.826 1024.92L497.91 1021.41ZM515.635 1007.98L518.689 1010.56L519.629 1009.45L519.635 1008L515.635 1007.98ZM516.172 866.184L520.172 866.199L520.187 862.184H516.172V866.184ZM386.729 866.184H382.729V870.184H386.729V866.184ZM386.729 753.391V749.391H382.729V753.391H386.729ZM666.563 753.391L670.563 753.384L670.556 749.391H666.563V753.391ZM664.004 1059.16C654.617 1070.63 641.652 1082.4 625.009 1094.44L629.698 1100.92C646.714 1088.61 660.246 1076.38 670.196 1064.22L664.004 1059.16ZM625.009 1094.44C608.468 1106.4 588.87 1117.18 566.18 1126.76L569.289 1134.13C592.432 1124.36 612.581 1113.3 629.698 1100.92L625.009 1094.44ZM566.152 1126.77C543.153 1136.68 517.449 1144.66 489.022 1150.7L490.685 1158.52C519.55 1152.39 545.767 1144.26 569.317 1134.12L566.152 1126.77ZM489.022 1150.7C460.681 1156.72 430.168 1159.74 397.471 1159.74V1167.74C430.659 1167.74 461.735 1164.68 490.685 1158.52L489.022 1150.7ZM397.471 1159.74C369.144 1159.74 342.459 1156.38 317.401 1149.67L315.333 1157.4C341.122 1164.3 368.507 1167.74 397.471 1167.74V1159.74ZM317.364 1149.66C292.646 1143.31 269.904 1133.96 249.121 1121.63L245.04 1128.51C266.509 1141.25 289.959 1150.88 315.371 1157.41L317.364 1149.66ZM249.19 1121.67C228.739 1108.98 210.038 1093.46 193.086 1075.09L187.208 1080.52C204.63 1099.39 223.885 1115.38 244.971 1128.47L249.19 1121.67ZM193.114 1075.12C176.549 1056.79 162.43 1035.8 150.766 1012.12L143.59 1015.66C155.559 1039.96 170.086 1061.57 187.179 1080.49L193.114 1075.12ZM150.736 1012.06C137.311 985.917 127.034 956.356 119.936 923.35L112.115 925.032C119.34 958.628 129.832 988.866 143.62 1015.72L150.736 1012.06ZM119.945 923.391C113.202 890.389 109.821 854.495 109.821 815.695H101.821C101.821 854.955 105.242 891.392 112.107 924.992L119.945 923.391ZM109.821 815.695V709.348H101.821V815.695H109.821ZM109.821 709.348C109.821 672.35 113.2 638.079 119.937 606.521L112.114 604.85C105.244 637.029 101.821 671.866 101.821 709.348H109.821ZM119.939 606.512C126.686 574.556 136.259 545.682 148.636 519.866L141.423 516.407C128.735 542.87 118.972 572.362 112.112 604.859L119.939 606.512ZM148.596 519.947C160.29 496.915 173.738 476.219 188.932 457.844L182.767 452.746C167.168 471.611 153.402 492.809 141.463 516.326L148.596 519.947ZM188.903 457.879C204.466 439.487 221.423 423.594 239.772 410.185L235.052 403.726C216.162 417.53 198.745 433.863 182.796 452.711L188.903 457.879ZM239.717 410.224C261.21 395.074 284.638 383.623 310.017 375.868L307.679 368.218C281.496 376.218 257.3 388.042 235.108 403.686L239.717 410.224ZM310.017 375.868C335.396 368.114 362.214 364.227 390.489 364.227V356.227C361.471 356.227 333.862 360.217 307.679 368.218L310.017 375.868ZM390.489 364.227C434.209 364.227 472.068 369.738 504.14 380.663L506.72 373.091C473.622 361.816 434.854 356.227 390.489 356.227V364.227ZM504.153 380.668C536.635 391.613 563.878 407.282 585.973 427.622L591.391 421.737C568.368 400.541 540.11 384.342 506.707 373.086L504.153 380.668ZM585.948 427.599C608.07 448.317 625.3 473.441 637.626 503.025L645.011 499.948C632.273 469.376 614.411 443.295 591.416 421.76L585.948 427.599ZM637.642 503.062C650.352 532.719 658.681 566.158 662.585 603.417L670.541 602.583C666.567 564.647 658.066 530.41 644.995 499.911L637.642 503.062ZM666.563 599H519.395V607H666.563V599ZM523.36 602.476C520.824 583.27 516.826 566.147 511.335 551.137L503.822 553.886C509.073 568.239 512.953 584.774 515.429 603.524L523.36 602.476ZM511.364 551.219C506.204 536.109 498.974 523.269 489.615 512.787L483.647 518.115C492.192 527.686 498.926 539.552 503.793 553.804L511.364 551.219ZM489.6 512.77C479.084 501.128 465.786 492.539 449.814 486.967L447.179 494.521C462.001 499.691 474.126 507.574 483.663 518.132L489.6 512.77ZM449.92 487.006C434.309 481.059 415.717 478.15 394.248 478.15V486.15C415.032 486.15 432.606 488.971 447.072 494.482L449.92 487.006ZM394.248 478.15C382.365 478.15 370.838 480.008 359.683 483.727L362.212 491.316C372.542 487.873 383.215 486.15 394.248 486.15V478.15ZM359.683 483.727C348.541 487.441 338.147 492.825 328.509 499.868L333.229 506.327C342.212 499.763 351.87 494.764 362.212 491.316L359.683 483.727ZM328.44 499.92C315.858 509.541 304.468 522.061 294.24 537.402L300.897 541.84C310.721 527.104 321.531 515.274 333.299 506.275L328.44 499.92ZM294.204 537.458C284.311 552.847 276.116 570.906 269.584 591.59L277.213 593.999C283.572 573.863 291.49 556.473 300.933 541.784L294.204 537.458ZM269.587 591.582C264.498 607.575 260.516 625.334 257.625 644.845L265.539 646.018C268.378 626.857 272.273 609.525 277.21 594.008L269.587 591.582ZM257.615 644.917C255.084 664.448 253.823 685.569 253.823 708.273H261.823C261.823 685.861 263.068 665.087 265.549 645.946L257.615 644.917ZM253.823 708.273V815.695H261.823V708.273H253.823ZM253.823 815.695C253.823 844.148 255.623 870.136 259.24 893.647L267.147 892.431C263.603 869.393 261.823 843.819 261.823 815.695H253.823ZM259.25 893.706C263.222 917.182 268.653 938.032 275.568 956.228L283.046 953.386C276.354 935.774 271.042 915.446 267.138 892.372L259.25 893.706ZM275.611 956.336C279.978 966.889 284.899 976.735 290.379 985.869L297.239 981.753C291.977 972.982 287.23 963.493 283.003 953.277L275.611 956.336ZM290.481 986.029C296.345 994.826 302.777 1002.73 309.779 1009.73L315.436 1004.08C308.832 997.474 302.731 989.982 297.137 981.592L290.481 986.029ZM309.779 1009.73C321.617 1021.57 335.318 1030.64 350.853 1036.93L353.855 1029.52C339.312 1023.63 326.515 1015.16 315.436 1004.08L309.779 1009.73ZM350.959 1036.97C366.846 1042.89 384.67 1045.99 404.379 1046.35L404.527 1038.36C385.565 1038 368.655 1035.02 353.749 1029.48L350.959 1036.97ZM404.453 1046.36C416.473 1046.36 428.317 1045.44 439.983 1043.62L438.748 1035.72C427.498 1037.48 416.067 1038.36 404.453 1038.36V1046.36ZM439.983 1043.62C451.627 1041.8 462.573 1039.25 472.816 1035.96L470.368 1028.34C460.559 1031.5 450.021 1033.96 438.748 1035.72L439.983 1043.62ZM472.816 1035.96C483.01 1032.68 492.003 1029.02 499.766 1024.95L496.054 1017.86C488.779 1021.68 480.226 1025.17 470.368 1028.34L472.816 1035.96ZM499.826 1024.92C507.951 1020.49 514.318 1015.73 518.689 1010.56L512.581 1005.4C509.074 1009.54 503.625 1013.73 495.995 1017.9L499.826 1024.92ZM519.635 1008L520.172 866.199L512.172 866.168L511.635 1007.97L519.635 1008ZM516.172 862.184H386.729V870.184H516.172V862.184ZM390.729 866.184V753.391H382.729V866.184H390.729ZM386.729 757.391H666.563V749.391H386.729V757.391ZM662.563 753.398L663.1 1061.7L671.1 1061.68L670.563 753.384L662.563 753.398Z" fill="black"/>
</svg>
