<svg width="660" height="1164" viewBox="0 0 660 1164" fill="none" xmlns="http://www.w3.org/2000/svg">
<path d="M608.008 1061.69C598.34 1073.51 585.091 1085.5 568.262 1097.68C551.432 1109.85 531.559 1120.77 508.643 1130.44C485.368 1140.47 459.408 1148.52 430.762 1154.61C402.116 1160.7 371.322 1163.74 338.379 1163.74C309.733 1163.74 282.699 1160.34 257.275 1153.54C232.21 1147.09 209.115 1137.6 187.988 1125.07C167.22 1112.18 148.242 1096.42 131.055 1077.8C114.225 1059.18 99.9023 1037.88 88.0859 1013.89C74.4792 987.391 64.0951 957.492 56.9336 924.191C50.1302 890.891 46.7285 854.725 46.7285 815.695V709.348C46.7285 672.108 50.1302 637.554 56.9336 605.686C63.737 573.459 73.4049 544.276 85.9375 518.137C97.7539 494.862 111.361 473.915 126.758 455.295C142.513 436.675 159.701 420.562 178.32 406.955C200.163 391.558 223.975 379.921 249.756 372.043C275.537 364.165 302.751 360.227 331.396 360.227C375.439 360.227 413.753 365.777 446.338 376.877C479.281 387.977 507.031 403.911 529.59 424.68C552.148 445.806 569.694 471.408 582.227 501.486C595.117 531.564 603.532 565.402 607.471 603H460.303C457.796 584.022 453.857 567.193 448.486 552.512C443.473 537.831 436.491 525.477 427.539 515.451C417.513 504.351 404.801 496.115 389.404 490.744C374.365 485.015 356.283 482.15 335.156 482.15C323.698 482.15 312.598 483.941 301.855 487.521C291.113 491.102 281.087 496.294 271.777 503.098C259.603 512.408 248.503 524.582 238.477 539.621C228.809 554.66 220.752 572.385 214.307 592.795C209.294 608.55 205.355 626.096 202.49 645.432C199.984 664.768 198.73 685.715 198.73 708.273V815.695C198.73 843.983 200.521 869.764 204.102 893.039C208.04 916.314 213.411 936.903 220.215 954.807C224.512 965.191 229.346 974.859 234.717 983.811C240.446 992.404 246.712 1000.1 253.516 1006.91C264.974 1018.36 278.223 1027.14 293.262 1033.22C308.659 1038.95 326.025 1042 345.361 1042.36C357.178 1042.36 368.815 1041.46 380.273 1039.67C391.732 1037.88 402.474 1035.37 412.5 1032.15C422.526 1028.93 431.299 1025.35 438.818 1021.41C446.696 1017.11 452.604 1012.64 456.543 1007.98L457.08 866.184H327.637V753.391H607.471L608.008 1061.69Z" fill="white"/>
<path d="M608.008 1061.69L610.33 1063.59L611.01 1062.76L611.008 1061.69L608.008 1061.69ZM508.643 1130.44L507.476 1127.68L507.466 1127.68L507.456 1127.69L508.643 1130.44ZM257.275 1153.54L258.051 1150.64L258.037 1150.64L258.023 1150.63L257.275 1153.54ZM187.988 1125.07L186.406 1127.62L186.432 1127.64L186.458 1127.65L187.988 1125.07ZM131.055 1077.8L128.829 1079.82L128.84 1079.83L128.85 1079.84L131.055 1077.8ZM88.0859 1013.89L90.7772 1012.56L90.7661 1012.54L90.7546 1012.52L88.0859 1013.89ZM56.9336 924.191L53.9943 924.792L53.9974 924.807L54.0006 924.822L56.9336 924.191ZM56.9336 605.686L59.8675 606.312L59.8689 606.305L56.9336 605.686ZM85.9375 518.137L83.2625 516.779L83.2471 516.809L83.2324 516.84L85.9375 518.137ZM126.758 455.295L124.468 453.357L124.457 453.37L124.446 453.383L126.758 455.295ZM178.32 406.955L176.592 404.503L176.571 404.518L176.55 404.533L178.32 406.955ZM446.338 376.877L445.37 379.717L445.38 379.72L446.338 376.877ZM529.59 424.68L531.641 422.49L531.631 422.481L531.622 422.473L529.59 424.68ZM582.227 501.486L579.457 502.64L579.463 502.654L579.469 502.668L582.227 501.486ZM607.471 603V606H610.801L610.454 602.687L607.471 603ZM460.303 603L457.329 603.393L457.673 606H460.303V603ZM448.486 552.512L445.647 553.481L445.658 553.512L445.669 553.542L448.486 552.512ZM427.539 515.451L429.777 513.453L429.771 513.447L429.765 513.44L427.539 515.451ZM389.404 490.744L388.336 493.548L388.376 493.563L388.416 493.577L389.404 490.744ZM271.777 503.098L270.007 500.675L269.981 500.695L269.955 500.715L271.777 503.098ZM238.477 539.621L235.98 537.957L235.967 537.978L235.953 537.999L238.477 539.621ZM214.307 592.795L217.165 593.705L217.167 593.698L214.307 592.795ZM202.49 645.432L199.523 644.992L199.519 645.019L199.515 645.046L202.49 645.432ZM204.102 893.039L201.136 893.495L201.14 893.517L201.144 893.54L204.102 893.039ZM220.215 954.807L217.41 955.872L217.426 955.913L217.443 955.954L220.215 954.807ZM234.717 983.811L232.144 985.354L232.181 985.415L232.221 985.475L234.717 983.811ZM253.516 1006.91L255.637 1004.78L253.516 1006.91ZM293.262 1033.22L292.136 1036.01L292.176 1036.02L292.216 1036.04L293.262 1033.22ZM345.361 1042.36L345.306 1045.35L345.334 1045.36H345.361V1042.36ZM438.818 1021.41L440.21 1024.07L440.233 1024.05L440.255 1024.04L438.818 1021.41ZM456.543 1007.98L458.833 1009.92L459.539 1009.08L459.543 1007.99L456.543 1007.98ZM457.08 866.184L460.08 866.195L460.091 863.184H457.08V866.184ZM327.637 866.184H324.637V869.184H327.637V866.184ZM327.637 753.391V750.391H324.637V753.391H327.637ZM607.471 753.391L610.471 753.385L610.465 750.391H607.471V753.391ZM605.686 1059.79C596.229 1071.35 583.193 1083.17 566.503 1095.25L570.02 1100.11C586.99 1087.83 600.451 1075.67 610.33 1063.59L605.686 1059.79ZM566.503 1095.25C549.89 1107.27 530.223 1118.08 507.476 1127.68L509.809 1133.21C532.895 1123.47 552.975 1112.44 570.02 1100.11L566.503 1095.25ZM507.456 1127.69C484.388 1137.62 458.62 1145.62 430.138 1151.68L431.385 1157.55C460.195 1151.42 486.348 1143.31 509.829 1133.2L507.456 1127.69ZM430.138 1151.68C401.721 1157.72 371.138 1160.74 338.379 1160.74V1166.74C371.506 1166.74 402.511 1163.68 431.385 1157.55L430.138 1151.68ZM338.379 1160.74C309.972 1160.74 283.2 1157.37 258.051 1150.64L256.5 1156.44C282.197 1163.31 309.494 1166.74 338.379 1166.74V1160.74ZM258.023 1150.63C233.218 1144.25 210.388 1134.87 189.519 1122.49L186.458 1127.65C207.841 1140.34 231.203 1149.93 256.528 1156.44L258.023 1150.63ZM189.57 1122.52C169.04 1109.78 150.27 1094.2 133.259 1075.77L128.85 1079.84C146.214 1098.65 165.4 1114.58 186.406 1127.62L189.57 1122.52ZM133.28 1075.79C116.649 1057.39 102.479 1036.32 90.7772 1012.56L85.3947 1015.21C97.3258 1039.44 111.802 1060.98 128.829 1079.82L133.28 1075.79ZM90.7546 1012.52C77.2837 986.285 66.9805 956.64 59.8665 923.561L54.0006 924.822C61.2096 958.344 71.6746 988.497 85.4172 1015.26L90.7546 1012.52ZM59.8729 923.591C53.1153 890.514 49.7285 854.553 49.7285 815.695H43.7285C43.7285 854.898 47.1451 891.267 53.9943 924.792L59.8729 923.591ZM49.7285 815.695V709.348H43.7285V815.695H49.7285ZM49.7285 709.348C49.7285 672.289 53.1138 637.948 59.8675 606.312L53.9997 605.059C47.1467 637.16 43.7285 671.927 43.7285 709.348H49.7285ZM59.8689 606.305C66.6294 574.282 76.2265 545.33 88.6426 519.434L83.2324 516.84C70.5834 543.222 60.8445 572.636 53.9983 605.066L59.8689 606.305ZM88.6125 519.495C100.337 496.402 113.824 475.643 129.07 457.207L124.446 453.383C108.897 472.187 95.1712 493.322 83.2625 516.779L88.6125 519.495ZM129.048 457.233C144.658 438.784 161.673 422.836 180.09 409.377L176.55 404.533C157.728 418.288 140.368 434.566 124.468 453.357L129.048 457.233ZM180.049 409.407C201.629 394.195 225.153 382.697 250.633 374.912L248.879 369.174C222.796 377.144 198.697 388.921 176.592 404.503L180.049 409.407ZM250.633 374.912C276.112 367.127 303.029 363.227 331.396 363.227V357.227C302.472 357.227 274.962 361.204 248.879 369.174L250.633 374.912ZM331.396 363.227C375.198 363.227 413.171 368.747 445.371 379.717L447.305 374.037C414.336 362.806 375.681 357.227 331.396 357.227V363.227ZM445.38 379.72C477.977 390.704 505.348 406.439 527.558 426.887L531.622 422.473C508.715 401.384 480.584 385.251 447.296 374.034L445.38 379.72ZM527.539 426.869C549.771 447.69 567.079 472.933 579.457 502.64L584.996 500.332C572.309 469.884 554.526 443.922 531.641 422.49L527.539 426.869ZM579.469 502.668C592.224 532.43 600.575 565.969 604.487 603.313L610.454 602.687C606.489 564.836 598.01 530.699 584.984 500.305L579.469 502.668ZM607.471 600H460.303V606H607.471V600ZM463.277 602.607C460.748 583.458 456.765 566.408 451.304 551.481L445.669 553.542C450.95 567.977 454.845 584.586 457.329 603.393L463.277 602.607ZM451.325 551.542C446.203 536.54 439.034 523.821 429.777 513.453L425.301 517.449C433.948 527.133 440.744 539.122 445.647 553.481L451.325 551.542ZM429.765 513.44C419.372 501.934 406.221 493.433 390.392 487.912L388.416 493.577C403.382 498.797 415.654 506.768 425.313 517.462L429.765 513.44ZM390.472 487.941C375.004 482.048 356.54 479.15 335.156 479.15V485.15C356.026 485.15 373.726 487.982 388.336 493.548L390.472 487.941ZM335.156 479.15C323.379 479.15 311.959 480.992 300.907 484.675L302.804 490.368C313.237 486.89 324.016 485.15 335.156 485.15V479.15ZM300.907 484.675C289.865 488.356 279.563 493.693 270.007 500.675L273.547 505.52C282.612 498.896 292.361 493.848 302.804 490.368L300.907 484.675ZM269.955 500.715C257.476 510.258 246.158 522.691 235.98 537.957L240.973 541.285C250.847 526.473 261.73 514.557 273.6 505.481L269.955 500.715ZM235.953 537.999C226.116 553.3 217.956 571.276 211.446 591.892L217.167 593.698C223.548 573.493 231.501 556.02 241 541.243L235.953 537.999ZM211.448 591.885C206.378 607.819 202.407 625.525 199.523 644.992L205.458 645.871C208.303 626.667 212.209 609.282 217.165 593.705L211.448 591.885ZM199.515 645.046C196.99 664.528 195.73 685.605 195.73 708.273H201.73C201.73 685.824 202.978 665.007 205.465 645.817L199.515 645.046ZM195.73 708.273V815.695H201.73V708.273H195.73ZM195.73 815.695C195.73 844.106 197.528 870.043 201.136 893.495L207.067 892.583C203.513 869.486 201.73 843.86 201.73 815.695H195.73ZM201.144 893.54C205.108 916.965 210.524 937.749 217.41 955.872L223.019 953.741C216.299 936.057 210.973 915.663 207.06 892.538L201.144 893.54ZM217.443 955.954C221.792 966.464 226.691 976.266 232.144 985.354L237.289 982.267C232 973.451 227.231 963.917 222.987 953.66L217.443 955.954ZM232.221 985.475C238.051 994.221 244.441 1002.07 251.394 1009.03L255.637 1004.78C248.983 998.131 242.84 990.588 237.213 982.146L232.221 985.475ZM251.394 1009.03C263.137 1020.77 276.725 1029.77 292.136 1036.01L294.387 1030.44C279.721 1024.51 266.811 1015.96 255.637 1004.78L251.394 1009.03ZM292.216 1036.04C307.981 1041.9 325.69 1044.99 345.306 1045.35L345.417 1039.36C326.361 1039 309.337 1036.01 294.308 1030.41L292.216 1036.04ZM345.361 1045.36C357.33 1045.36 369.122 1044.45 380.737 1042.63L379.81 1036.71C368.508 1038.47 357.026 1039.36 345.361 1039.36V1045.36ZM380.737 1042.63C392.334 1040.82 403.229 1038.28 413.418 1035.01L411.582 1029.29C401.719 1032.46 391.13 1034.94 379.81 1036.71L380.737 1042.63ZM413.418 1035.01C423.57 1031.74 432.508 1028.1 440.21 1024.07L437.426 1018.75C430.09 1022.59 421.482 1026.11 411.582 1029.29L413.418 1035.01ZM440.255 1024.04C448.318 1019.64 454.571 1014.96 458.833 1009.92L454.253 1006.04C450.638 1010.31 445.074 1014.58 437.382 1018.77L440.255 1024.04ZM459.543 1007.99L460.08 866.195L454.08 866.172L453.543 1007.97L459.543 1007.99ZM457.08 863.184H327.637V869.184H457.08V863.184ZM330.637 866.184V753.391H324.637V866.184H330.637ZM327.637 756.391H607.471V750.391H327.637V756.391ZM604.471 753.396L605.008 1061.7L611.008 1061.69L610.471 753.385L604.471 753.396Z" fill="black"/>
<path d="M659.008 1061.69C649.34 1073.51 636.091 1085.5 619.262 1097.68C602.432 1109.85 582.559 1120.77 559.643 1130.44C536.368 1140.47 510.408 1148.52 481.762 1154.61C453.116 1160.7 422.322 1163.74 389.379 1163.74C360.733 1163.74 333.699 1160.34 308.275 1153.54C283.21 1147.09 260.115 1137.6 238.988 1125.07C218.22 1112.18 199.242 1096.42 182.055 1077.8C165.225 1059.18 150.902 1037.88 139.086 1013.89C125.479 987.391 115.095 957.492 107.934 924.191C101.13 890.891 97.7285 854.725 97.7285 815.695V709.348C97.7285 672.108 101.13 637.554 107.934 605.686C114.737 573.459 124.405 544.276 136.938 518.137C148.754 494.862 162.361 473.915 177.758 455.295C193.513 436.675 210.701 420.562 229.32 406.955C251.163 391.558 274.975 379.921 300.756 372.043C326.537 364.165 353.751 360.227 382.396 360.227C426.439 360.227 464.753 365.777 497.338 376.877C530.281 387.977 558.031 403.911 580.59 424.68C603.148 445.806 620.694 471.408 633.227 501.486C646.117 531.564 654.532 565.402 658.471 603H511.303C508.796 584.022 504.857 567.193 499.486 552.512C494.473 537.831 487.491 525.477 478.539 515.451C468.513 504.351 455.801 496.115 440.404 490.744C425.365 485.015 407.283 482.15 386.156 482.15C374.698 482.15 363.598 483.941 352.855 487.521C342.113 491.102 332.087 496.294 322.777 503.098C310.603 512.408 299.503 524.582 289.477 539.621C279.809 554.66 271.752 572.385 265.307 592.795C260.294 608.55 256.355 626.096 253.49 645.432C250.984 664.768 249.73 685.715 249.73 708.273V815.695C249.73 843.983 251.521 869.764 255.102 893.039C259.04 916.314 264.411 936.903 271.215 954.807C275.512 965.191 280.346 974.859 285.717 983.811C291.446 992.404 297.712 1000.1 304.516 1006.91C315.974 1018.36 329.223 1027.14 344.262 1033.22C359.659 1038.95 377.025 1042 396.361 1042.36C408.178 1042.36 419.815 1041.46 431.273 1039.67C442.732 1037.88 453.474 1035.37 463.5 1032.15C473.526 1028.93 482.299 1025.35 489.818 1021.41C497.696 1017.11 503.604 1012.64 507.543 1007.98L508.08 866.184H378.637V753.391H658.471L659.008 1061.69Z" fill="white"/>
<path d="M659.008 1061.69L661.33 1063.59L662.01 1062.76L662.008 1061.69L659.008 1061.69ZM559.643 1130.44L558.476 1127.68L558.466 1127.68L558.456 1127.69L559.643 1130.44ZM308.275 1153.54L309.051 1150.64L309.037 1150.64L309.023 1150.63L308.275 1153.54ZM238.988 1125.07L237.406 1127.62L237.432 1127.64L237.458 1127.65L238.988 1125.07ZM182.055 1077.8L179.829 1079.82L179.84 1079.83L179.85 1079.84L182.055 1077.8ZM139.086 1013.89L141.777 1012.56L141.766 1012.54L141.755 1012.52L139.086 1013.89ZM107.934 924.191L104.994 924.792L104.997 924.807L105.001 924.822L107.934 924.191ZM107.934 605.686L110.867 606.312L110.869 606.305L107.934 605.686ZM136.938 518.137L134.262 516.779L134.247 516.809L134.232 516.84L136.938 518.137ZM177.758 455.295L175.468 453.357L175.457 453.37L175.446 453.383L177.758 455.295ZM229.32 406.955L227.592 404.503L227.571 404.518L227.55 404.533L229.32 406.955ZM497.338 376.877L496.37 379.717L496.38 379.72L497.338 376.877ZM580.59 424.68L582.641 422.49L582.631 422.481L582.622 422.473L580.59 424.68ZM633.227 501.486L630.457 502.64L630.463 502.654L630.469 502.668L633.227 501.486ZM658.471 603V606H661.801L661.454 602.687L658.471 603ZM511.303 603L508.329 603.393L508.673 606H511.303V603ZM499.486 552.512L496.647 553.481L496.658 553.512L496.669 553.542L499.486 552.512ZM478.539 515.451L480.777 513.453L480.771 513.447L480.765 513.44L478.539 515.451ZM440.404 490.744L439.336 493.548L439.376 493.563L439.416 493.577L440.404 490.744ZM322.777 503.098L321.007 500.675L320.981 500.695L320.955 500.715L322.777 503.098ZM289.477 539.621L286.98 537.957L286.967 537.978L286.953 537.999L289.477 539.621ZM265.307 592.795L268.165 593.705L268.167 593.698L265.307 592.795ZM253.49 645.432L250.523 644.992L250.519 645.019L250.515 645.046L253.49 645.432ZM255.102 893.039L252.136 893.495L252.14 893.517L252.144 893.54L255.102 893.039ZM271.215 954.807L268.41 955.872L268.426 955.913L268.443 955.954L271.215 954.807ZM285.717 983.811L283.144 985.354L283.181 985.415L283.221 985.475L285.717 983.811ZM304.516 1006.91L306.637 1004.78L304.516 1006.91ZM344.262 1033.22L343.136 1036.01L343.176 1036.02L343.216 1036.04L344.262 1033.22ZM396.361 1042.36L396.306 1045.35L396.334 1045.36H396.361V1042.36ZM489.818 1021.41L491.21 1024.07L491.233 1024.05L491.255 1024.04L489.818 1021.41ZM507.543 1007.98L509.833 1009.92L510.539 1009.08L510.543 1007.99L507.543 1007.98ZM508.08 866.184L511.08 866.195L511.091 863.184H508.08V866.184ZM378.637 866.184H375.637V869.184H378.637V866.184ZM378.637 753.391V750.391H375.637V753.391H378.637ZM658.471 753.391L661.471 753.385L661.465 750.391H658.471V753.391ZM656.686 1059.79C647.229 1071.35 634.193 1083.17 617.503 1095.25L621.02 1100.11C637.99 1087.83 651.451 1075.67 661.33 1063.59L656.686 1059.79ZM617.503 1095.25C600.89 1107.27 581.223 1118.08 558.476 1127.68L560.809 1133.21C583.895 1123.47 603.975 1112.44 621.02 1100.11L617.503 1095.25ZM558.456 1127.69C535.388 1137.62 509.62 1145.62 481.138 1151.68L482.385 1157.55C511.195 1151.42 537.348 1143.31 560.829 1133.2L558.456 1127.69ZM481.138 1151.68C452.721 1157.72 422.138 1160.74 389.379 1160.74V1166.74C422.506 1166.74 453.511 1163.68 482.385 1157.55L481.138 1151.68ZM389.379 1160.74C360.972 1160.74 334.2 1157.37 309.051 1150.64L307.5 1156.44C333.197 1163.31 360.494 1166.74 389.379 1166.74V1160.74ZM309.023 1150.63C284.218 1144.25 261.388 1134.87 240.519 1122.49L237.458 1127.65C258.841 1140.34 282.203 1149.93 307.528 1156.44L309.023 1150.63ZM240.57 1122.52C220.04 1109.78 201.27 1094.2 184.259 1075.77L179.85 1079.84C197.214 1098.65 216.4 1114.58 237.406 1127.62L240.57 1122.52ZM184.28 1075.79C167.649 1057.39 153.479 1036.32 141.777 1012.56L136.395 1015.21C148.326 1039.44 162.802 1060.98 179.829 1079.82L184.28 1075.79ZM141.755 1012.52C128.284 986.285 117.98 956.64 110.867 923.561L105.001 924.822C112.21 958.344 122.675 988.497 136.417 1015.26L141.755 1012.52ZM110.873 923.591C104.115 890.514 100.729 854.553 100.729 815.695H94.7285C94.7285 854.898 98.1451 891.267 104.994 924.792L110.873 923.591ZM100.729 815.695V709.348H94.7285V815.695H100.729ZM100.729 709.348C100.729 672.289 104.114 637.948 110.867 606.312L105 605.059C98.1467 637.16 94.7285 671.927 94.7285 709.348H100.729ZM110.869 606.305C117.629 574.282 127.226 545.33 139.643 519.434L134.232 516.84C121.583 543.222 111.845 572.636 104.998 605.066L110.869 606.305ZM139.613 519.495C151.337 496.402 164.824 475.643 180.07 457.207L175.446 453.383C159.897 472.187 146.171 493.322 134.262 516.779L139.613 519.495ZM180.048 457.233C195.658 438.784 212.673 422.836 231.09 409.377L227.55 404.533C208.728 418.288 191.368 434.566 175.468 453.357L180.048 457.233ZM231.049 409.407C252.629 394.195 276.153 382.697 301.633 374.912L299.879 369.174C273.796 377.144 249.697 388.921 227.592 404.503L231.049 409.407ZM301.633 374.912C327.112 367.127 354.029 363.227 382.396 363.227V357.227C353.472 357.227 325.962 361.204 299.879 369.174L301.633 374.912ZM382.396 363.227C426.198 363.227 464.171 368.747 496.371 379.717L498.305 374.037C465.336 362.806 426.681 357.227 382.396 357.227V363.227ZM496.38 379.72C528.977 390.704 556.348 406.439 578.558 426.887L582.622 422.473C559.715 401.384 531.584 385.251 498.296 374.034L496.38 379.72ZM578.539 426.869C600.771 447.69 618.079 472.933 630.457 502.64L635.996 500.332C623.309 469.884 605.526 443.922 582.641 422.49L578.539 426.869ZM630.469 502.668C643.224 532.43 651.575 565.969 655.487 603.313L661.454 602.687C657.489 564.836 649.01 530.699 635.984 500.305L630.469 502.668ZM658.471 600H511.303V606H658.471V600ZM514.277 602.607C511.748 583.458 507.765 566.408 502.304 551.481L496.669 553.542C501.95 567.977 505.845 584.586 508.329 603.393L514.277 602.607ZM502.325 551.542C497.203 536.54 490.034 523.821 480.777 513.453L476.301 517.449C484.948 527.133 491.744 539.122 496.647 553.481L502.325 551.542ZM480.765 513.44C470.372 501.934 457.221 493.433 441.392 487.912L439.416 493.577C454.382 498.797 466.654 506.768 476.313 517.462L480.765 513.44ZM441.472 487.941C426.004 482.048 407.54 479.15 386.156 479.15V485.15C407.026 485.15 424.726 487.982 439.336 493.548L441.472 487.941ZM386.156 479.15C374.379 479.15 362.959 480.992 351.907 484.675L353.804 490.368C364.237 486.89 375.016 485.15 386.156 485.15V479.15ZM351.907 484.675C340.865 488.356 330.563 493.693 321.007 500.675L324.547 505.52C333.612 498.896 343.361 493.848 353.804 490.368L351.907 484.675ZM320.955 500.715C308.476 510.258 297.158 522.691 286.98 537.957L291.973 541.285C301.847 526.473 312.73 514.557 324.6 505.481L320.955 500.715ZM286.953 537.999C277.116 553.3 268.956 571.276 262.446 591.892L268.167 593.698C274.548 573.493 282.501 556.02 292 541.243L286.953 537.999ZM262.448 591.885C257.378 607.819 253.407 625.525 250.523 644.992L256.458 645.871C259.303 626.667 263.209 609.282 268.165 593.705L262.448 591.885ZM250.515 645.046C247.99 664.528 246.73 685.605 246.73 708.273H252.73C252.73 685.824 253.978 665.007 256.465 645.817L250.515 645.046ZM246.73 708.273V815.695H252.73V708.273H246.73ZM246.73 815.695C246.73 844.106 248.528 870.043 252.136 893.495L258.067 892.583C254.513 869.486 252.73 843.86 252.73 815.695H246.73ZM252.144 893.54C256.108 916.965 261.524 937.749 268.41 955.872L274.019 953.741C267.299 936.057 261.973 915.663 258.06 892.538L252.144 893.54ZM268.443 955.954C272.792 966.464 277.691 976.266 283.144 985.354L288.289 982.267C283 973.451 278.231 963.917 273.987 953.66L268.443 955.954ZM283.221 985.475C289.051 994.221 295.441 1002.07 302.394 1009.03L306.637 1004.78C299.983 998.131 293.84 990.588 288.213 982.146L283.221 985.475ZM302.394 1009.03C314.137 1020.77 327.725 1029.77 343.136 1036.01L345.387 1030.44C330.721 1024.51 317.811 1015.96 306.637 1004.78L302.394 1009.03ZM343.216 1036.04C358.981 1041.9 376.69 1044.99 396.306 1045.35L396.417 1039.36C377.361 1039 360.337 1036.01 345.308 1030.41L343.216 1036.04ZM396.361 1045.36C408.33 1045.36 420.122 1044.45 431.737 1042.63L430.81 1036.71C419.508 1038.47 408.026 1039.36 396.361 1039.36V1045.36ZM431.737 1042.63C443.334 1040.82 454.229 1038.28 464.418 1035.01L462.582 1029.29C452.719 1032.46 442.13 1034.94 430.81 1036.71L431.737 1042.63ZM464.418 1035.01C474.57 1031.74 483.508 1028.1 491.21 1024.07L488.426 1018.75C481.09 1022.59 472.482 1026.11 462.582 1029.29L464.418 1035.01ZM491.255 1024.04C499.318 1019.64 505.571 1014.96 509.833 1009.92L505.253 1006.04C501.638 1010.31 496.074 1014.58 488.382 1018.77L491.255 1024.04ZM510.543 1007.99L511.08 866.195L505.08 866.172L504.543 1007.97L510.543 1007.99ZM508.08 863.184H378.637V869.184H508.08V863.184ZM381.637 866.184V753.391H375.637V866.184H381.637ZM378.637 756.391H658.471V750.391H378.637V756.391ZM655.471 753.396L656.008 1061.7L662.008 1061.69L661.471 753.385L655.471 753.396Z" fill="black"/>
</svg>
